<mxfile host="app.diagrams.net" modified="2023-04-16T10:39:36.450Z" agent="Mozilla/5.0 (Windows NT 10.0; Win64; x64) AppleWebKit/537.36 (KHTML, like Gecko) Chrome/111.0.5563.147 Safari/537.36" etag="kQF_GjIbd0Is_ifcvh6M" version="21.1.8" type="device">
  <diagram name="페이지-1" id="kf86QB2v_KvhjwnGmRAN">
    <mxGraphModel dx="1434" dy="756" grid="1" gridSize="10" guides="1" tooltips="1" connect="1" arrows="1" fold="1" page="1" pageScale="1" pageWidth="869" pageHeight="680" math="0" shadow="0">
      <root>
        <mxCell id="0" />
        <mxCell id="1" parent="0" />
        <mxCell id="UbSvKDIAUj5E0JvzbPg4-7" style="edgeStyle=orthogonalEdgeStyle;rounded=0;orthogonalLoop=1;jettySize=auto;html=1;entryX=0;entryY=0.5;entryDx=0;entryDy=0;" edge="1" parent="1" source="UbSvKDIAUj5E0JvzbPg4-1" target="UbSvKDIAUj5E0JvzbPg4-4">
          <mxGeometry relative="1" as="geometry" />
        </mxCell>
        <mxCell id="UbSvKDIAUj5E0JvzbPg4-9" style="edgeStyle=orthogonalEdgeStyle;rounded=0;orthogonalLoop=1;jettySize=auto;html=1;entryX=0;entryY=0.5;entryDx=0;entryDy=0;" edge="1" parent="1" source="UbSvKDIAUj5E0JvzbPg4-1" target="UbSvKDIAUj5E0JvzbPg4-6">
          <mxGeometry relative="1" as="geometry" />
        </mxCell>
        <mxCell id="UbSvKDIAUj5E0JvzbPg4-53" style="edgeStyle=orthogonalEdgeStyle;rounded=0;orthogonalLoop=1;jettySize=auto;html=1;" edge="1" parent="1" source="UbSvKDIAUj5E0JvzbPg4-1" target="UbSvKDIAUj5E0JvzbPg4-12">
          <mxGeometry relative="1" as="geometry" />
        </mxCell>
        <mxCell id="UbSvKDIAUj5E0JvzbPg4-1" value="InitialProcess" style="rounded=0;whiteSpace=wrap;html=1;" vertex="1" parent="1">
          <mxGeometry x="400" y="80" width="80" height="20" as="geometry" />
        </mxCell>
        <mxCell id="UbSvKDIAUj5E0JvzbPg4-2" value="_PhysicsProcess loop" style="swimlane;startSize=20;" vertex="1" parent="1">
          <mxGeometry x="360" y="40" width="460" height="620" as="geometry" />
        </mxCell>
        <mxCell id="UbSvKDIAUj5E0JvzbPg4-6" value="convert delta time" style="rounded=0;whiteSpace=wrap;html=1;" vertex="1" parent="UbSvKDIAUj5E0JvzbPg4-2">
          <mxGeometry x="200" y="40" width="100" height="20" as="geometry" />
        </mxCell>
        <mxCell id="UbSvKDIAUj5E0JvzbPg4-10" value="deltaTime" style="shape=hexagon;perimeter=hexagonPerimeter2;whiteSpace=wrap;html=1;fixedSize=1;size=10;" vertex="1" parent="UbSvKDIAUj5E0JvzbPg4-2">
          <mxGeometry x="320" y="40" width="70" height="20" as="geometry" />
        </mxCell>
        <mxCell id="UbSvKDIAUj5E0JvzbPg4-113" style="edgeStyle=orthogonalEdgeStyle;rounded=0;orthogonalLoop=1;jettySize=auto;html=1;entryX=0.5;entryY=0;entryDx=0;entryDy=0;dashed=1;exitX=1;exitY=0.5;exitDx=0;exitDy=0;" edge="1" parent="UbSvKDIAUj5E0JvzbPg4-2" source="UbSvKDIAUj5E0JvzbPg4-10" target="UbSvKDIAUj5E0JvzbPg4-2">
          <mxGeometry relative="1" as="geometry">
            <Array as="points">
              <mxPoint x="480" y="50" />
              <mxPoint x="480" y="-20" />
              <mxPoint x="230" y="-20" />
            </Array>
          </mxGeometry>
        </mxCell>
        <mxCell id="UbSvKDIAUj5E0JvzbPg4-11" style="edgeStyle=orthogonalEdgeStyle;rounded=0;orthogonalLoop=1;jettySize=auto;html=1;entryX=0;entryY=0.5;entryDx=0;entryDy=0;" edge="1" parent="UbSvKDIAUj5E0JvzbPg4-2" source="UbSvKDIAUj5E0JvzbPg4-6" target="UbSvKDIAUj5E0JvzbPg4-10">
          <mxGeometry relative="1" as="geometry" />
        </mxCell>
        <mxCell id="UbSvKDIAUj5E0JvzbPg4-3" value="AdjustCountdownDic" style="rounded=0;whiteSpace=wrap;html=1;" vertex="1" parent="UbSvKDIAUj5E0JvzbPg4-2">
          <mxGeometry x="320" y="80" width="120" height="20" as="geometry" />
        </mxCell>
        <mxCell id="UbSvKDIAUj5E0JvzbPg4-8" style="edgeStyle=orthogonalEdgeStyle;rounded=0;orthogonalLoop=1;jettySize=auto;html=1;entryX=0;entryY=0.5;entryDx=0;entryDy=0;" edge="1" parent="UbSvKDIAUj5E0JvzbPg4-2" source="UbSvKDIAUj5E0JvzbPg4-4" target="UbSvKDIAUj5E0JvzbPg4-3">
          <mxGeometry relative="1" as="geometry" />
        </mxCell>
        <mxCell id="UbSvKDIAUj5E0JvzbPg4-4" value="count dict" style="shape=hexagon;perimeter=hexagonPerimeter2;whiteSpace=wrap;html=1;fixedSize=1;size=10;" vertex="1" parent="UbSvKDIAUj5E0JvzbPg4-2">
          <mxGeometry x="200" y="80" width="70" height="20" as="geometry" />
        </mxCell>
        <mxCell id="UbSvKDIAUj5E0JvzbPg4-16" style="edgeStyle=orthogonalEdgeStyle;rounded=0;orthogonalLoop=1;jettySize=auto;html=1;entryX=0;entryY=0.5;entryDx=0;entryDy=0;" edge="1" parent="1" source="UbSvKDIAUj5E0JvzbPg4-12" target="UbSvKDIAUj5E0JvzbPg4-14">
          <mxGeometry relative="1" as="geometry" />
        </mxCell>
        <mxCell id="UbSvKDIAUj5E0JvzbPg4-54" style="edgeStyle=orthogonalEdgeStyle;rounded=0;orthogonalLoop=1;jettySize=auto;html=1;entryX=0.5;entryY=0;entryDx=0;entryDy=0;" edge="1" parent="1" source="UbSvKDIAUj5E0JvzbPg4-12" target="UbSvKDIAUj5E0JvzbPg4-18">
          <mxGeometry relative="1" as="geometry" />
        </mxCell>
        <mxCell id="UbSvKDIAUj5E0JvzbPg4-12" value="InputMove" style="rounded=0;whiteSpace=wrap;html=1;" vertex="1" parent="1">
          <mxGeometry x="410" y="160" width="60" height="20" as="geometry" />
        </mxCell>
        <mxCell id="UbSvKDIAUj5E0JvzbPg4-17" style="edgeStyle=orthogonalEdgeStyle;rounded=0;orthogonalLoop=1;jettySize=auto;html=1;entryX=0;entryY=0.5;entryDx=0;entryDy=0;" edge="1" parent="1" source="UbSvKDIAUj5E0JvzbPg4-14" target="UbSvKDIAUj5E0JvzbPg4-15">
          <mxGeometry relative="1" as="geometry" />
        </mxCell>
        <mxCell id="UbSvKDIAUj5E0JvzbPg4-14" value="WASD input" style="rounded=0;whiteSpace=wrap;html=1;" vertex="1" parent="1">
          <mxGeometry x="560" y="160" width="70" height="20" as="geometry" />
        </mxCell>
        <mxCell id="UbSvKDIAUj5E0JvzbPg4-24" style="edgeStyle=orthogonalEdgeStyle;rounded=0;orthogonalLoop=1;jettySize=auto;html=1;entryX=0.5;entryY=0;entryDx=0;entryDy=0;dashed=1;" edge="1" parent="1" source="UbSvKDIAUj5E0JvzbPg4-15" target="UbSvKDIAUj5E0JvzbPg4-19">
          <mxGeometry relative="1" as="geometry">
            <Array as="points">
              <mxPoint x="715" y="200" />
              <mxPoint x="605" y="200" />
            </Array>
          </mxGeometry>
        </mxCell>
        <mxCell id="UbSvKDIAUj5E0JvzbPg4-15" value="dirControl" style="shape=hexagon;perimeter=hexagonPerimeter2;whiteSpace=wrap;html=1;fixedSize=1;size=10;" vertex="1" parent="1">
          <mxGeometry x="680" y="160" width="70" height="20" as="geometry" />
        </mxCell>
        <mxCell id="UbSvKDIAUj5E0JvzbPg4-21" style="edgeStyle=orthogonalEdgeStyle;rounded=0;orthogonalLoop=1;jettySize=auto;html=1;entryX=0;entryY=0.5;entryDx=0;entryDy=0;" edge="1" parent="1" source="UbSvKDIAUj5E0JvzbPg4-18" target="UbSvKDIAUj5E0JvzbPg4-19">
          <mxGeometry relative="1" as="geometry" />
        </mxCell>
        <mxCell id="UbSvKDIAUj5E0JvzbPg4-18" value="AdjustMovingPhysics" style="rounded=0;whiteSpace=wrap;html=1;" vertex="1" parent="1">
          <mxGeometry x="380" y="220" width="120" height="20" as="geometry" />
        </mxCell>
        <mxCell id="UbSvKDIAUj5E0JvzbPg4-22" style="edgeStyle=orthogonalEdgeStyle;rounded=0;orthogonalLoop=1;jettySize=auto;html=1;entryX=0;entryY=0.5;entryDx=0;entryDy=0;" edge="1" parent="1" source="UbSvKDIAUj5E0JvzbPg4-19" target="UbSvKDIAUj5E0JvzbPg4-20">
          <mxGeometry relative="1" as="geometry" />
        </mxCell>
        <mxCell id="UbSvKDIAUj5E0JvzbPg4-19" value="force to velocity" style="rounded=0;whiteSpace=wrap;html=1;" vertex="1" parent="1">
          <mxGeometry x="560" y="220" width="90" height="20" as="geometry" />
        </mxCell>
        <mxCell id="UbSvKDIAUj5E0JvzbPg4-20" value="velMain" style="shape=hexagon;perimeter=hexagonPerimeter2;whiteSpace=wrap;html=1;fixedSize=1;size=10;" vertex="1" parent="1">
          <mxGeometry x="680" y="220" width="60" height="20" as="geometry" />
        </mxCell>
        <mxCell id="UbSvKDIAUj5E0JvzbPg4-29" style="edgeStyle=orthogonalEdgeStyle;rounded=0;orthogonalLoop=1;jettySize=auto;html=1;entryX=0;entryY=0.5;entryDx=0;entryDy=0;" edge="1" parent="1" source="UbSvKDIAUj5E0JvzbPg4-23" target="UbSvKDIAUj5E0JvzbPg4-25">
          <mxGeometry relative="1" as="geometry" />
        </mxCell>
        <mxCell id="UbSvKDIAUj5E0JvzbPg4-23" value="InputDash" style="rounded=0;whiteSpace=wrap;html=1;" vertex="1" parent="1">
          <mxGeometry x="410" y="260" width="60" height="20" as="geometry" />
        </mxCell>
        <mxCell id="UbSvKDIAUj5E0JvzbPg4-63" style="edgeStyle=orthogonalEdgeStyle;rounded=0;orthogonalLoop=1;jettySize=auto;html=1;entryX=0;entryY=0.5;entryDx=0;entryDy=0;" edge="1" parent="1" source="UbSvKDIAUj5E0JvzbPg4-25" target="UbSvKDIAUj5E0JvzbPg4-62">
          <mxGeometry relative="1" as="geometry" />
        </mxCell>
        <mxCell id="UbSvKDIAUj5E0JvzbPg4-25" value="dash trigger" style="rounded=0;whiteSpace=wrap;html=1;" vertex="1" parent="1">
          <mxGeometry x="560" y="260" width="80" height="20" as="geometry" />
        </mxCell>
        <mxCell id="UbSvKDIAUj5E0JvzbPg4-33" style="edgeStyle=orthogonalEdgeStyle;rounded=0;orthogonalLoop=1;jettySize=auto;html=1;entryX=0;entryY=0.5;entryDx=0;entryDy=0;" edge="1" parent="1" source="UbSvKDIAUj5E0JvzbPg4-27" target="UbSvKDIAUj5E0JvzbPg4-28">
          <mxGeometry relative="1" as="geometry" />
        </mxCell>
        <mxCell id="UbSvKDIAUj5E0JvzbPg4-27" value="ActionDash" style="rounded=0;whiteSpace=wrap;html=1;" vertex="1" parent="1">
          <mxGeometry x="400" y="300" width="80" height="20" as="geometry" />
        </mxCell>
        <mxCell id="UbSvKDIAUj5E0JvzbPg4-31" style="edgeStyle=orthogonalEdgeStyle;rounded=0;orthogonalLoop=1;jettySize=auto;html=1;dashed=1;entryX=1;entryY=0.5;entryDx=0;entryDy=0;" edge="1" parent="1" source="UbSvKDIAUj5E0JvzbPg4-28" target="UbSvKDIAUj5E0JvzbPg4-20">
          <mxGeometry relative="1" as="geometry">
            <mxPoint x="760" y="200" as="targetPoint" />
            <Array as="points">
              <mxPoint x="800" y="310" />
              <mxPoint x="800" y="230" />
            </Array>
          </mxGeometry>
        </mxCell>
        <mxCell id="UbSvKDIAUj5E0JvzbPg4-28" value="acceleration" style="rounded=0;whiteSpace=wrap;html=1;" vertex="1" parent="1">
          <mxGeometry x="560" y="300" width="80" height="20" as="geometry" />
        </mxCell>
        <mxCell id="UbSvKDIAUj5E0JvzbPg4-34" value="" style="endArrow=classic;html=1;rounded=0;dashed=1;exitX=0.5;exitY=1;exitDx=0;exitDy=0;entryX=0.5;entryY=0;entryDx=0;entryDy=0;" edge="1" parent="1" source="UbSvKDIAUj5E0JvzbPg4-25" target="UbSvKDIAUj5E0JvzbPg4-28">
          <mxGeometry width="50" height="50" relative="1" as="geometry">
            <mxPoint x="700" y="340" as="sourcePoint" />
            <mxPoint x="750" y="290" as="targetPoint" />
          </mxGeometry>
        </mxCell>
        <mxCell id="UbSvKDIAUj5E0JvzbPg4-50" style="edgeStyle=orthogonalEdgeStyle;rounded=0;orthogonalLoop=1;jettySize=auto;html=1;entryX=0;entryY=0.5;entryDx=0;entryDy=0;" edge="1" parent="1" source="UbSvKDIAUj5E0JvzbPg4-35" target="UbSvKDIAUj5E0JvzbPg4-36">
          <mxGeometry relative="1" as="geometry" />
        </mxCell>
        <mxCell id="UbSvKDIAUj5E0JvzbPg4-51" style="edgeStyle=orthogonalEdgeStyle;rounded=0;orthogonalLoop=1;jettySize=auto;html=1;entryX=0;entryY=0.5;entryDx=0;entryDy=0;" edge="1" parent="1" source="UbSvKDIAUj5E0JvzbPg4-35" target="UbSvKDIAUj5E0JvzbPg4-37">
          <mxGeometry relative="1" as="geometry" />
        </mxCell>
        <mxCell id="UbSvKDIAUj5E0JvzbPg4-52" style="edgeStyle=orthogonalEdgeStyle;rounded=0;orthogonalLoop=1;jettySize=auto;html=1;entryX=0;entryY=0.5;entryDx=0;entryDy=0;" edge="1" parent="1" source="UbSvKDIAUj5E0JvzbPg4-35" target="UbSvKDIAUj5E0JvzbPg4-38">
          <mxGeometry relative="1" as="geometry" />
        </mxCell>
        <mxCell id="UbSvKDIAUj5E0JvzbPg4-72" style="edgeStyle=orthogonalEdgeStyle;rounded=0;orthogonalLoop=1;jettySize=auto;html=1;entryX=0.5;entryY=0;entryDx=0;entryDy=0;" edge="1" parent="1" source="UbSvKDIAUj5E0JvzbPg4-35" target="UbSvKDIAUj5E0JvzbPg4-58">
          <mxGeometry relative="1" as="geometry" />
        </mxCell>
        <mxCell id="UbSvKDIAUj5E0JvzbPg4-35" value="ActionUnderAttack" style="rounded=0;whiteSpace=wrap;html=1;" vertex="1" parent="1">
          <mxGeometry x="380" y="340" width="120" height="20" as="geometry" />
        </mxCell>
        <mxCell id="UbSvKDIAUj5E0JvzbPg4-46" style="edgeStyle=orthogonalEdgeStyle;rounded=0;orthogonalLoop=1;jettySize=auto;html=1;entryX=0;entryY=0.5;entryDx=0;entryDy=0;" edge="1" parent="1" source="UbSvKDIAUj5E0JvzbPg4-36" target="UbSvKDIAUj5E0JvzbPg4-40">
          <mxGeometry relative="1" as="geometry" />
        </mxCell>
        <mxCell id="UbSvKDIAUj5E0JvzbPg4-47" style="edgeStyle=orthogonalEdgeStyle;rounded=0;orthogonalLoop=1;jettySize=auto;html=1;entryX=0;entryY=0.25;entryDx=0;entryDy=0;" edge="1" parent="1" source="UbSvKDIAUj5E0JvzbPg4-36" target="UbSvKDIAUj5E0JvzbPg4-45">
          <mxGeometry relative="1" as="geometry" />
        </mxCell>
        <mxCell id="UbSvKDIAUj5E0JvzbPg4-36" value="hit trigger" style="rounded=0;whiteSpace=wrap;html=1;" vertex="1" parent="1">
          <mxGeometry x="560" y="340" width="80" height="20" as="geometry" />
        </mxCell>
        <mxCell id="UbSvKDIAUj5E0JvzbPg4-37" value="body blink" style="rounded=0;whiteSpace=wrap;html=1;" vertex="1" parent="1">
          <mxGeometry x="560" y="380" width="80" height="20" as="geometry" />
        </mxCell>
        <mxCell id="UbSvKDIAUj5E0JvzbPg4-48" style="edgeStyle=orthogonalEdgeStyle;rounded=0;orthogonalLoop=1;jettySize=auto;html=1;entryX=0;entryY=0.75;entryDx=0;entryDy=0;" edge="1" parent="1" source="UbSvKDIAUj5E0JvzbPg4-38" target="UbSvKDIAUj5E0JvzbPg4-45">
          <mxGeometry relative="1" as="geometry" />
        </mxCell>
        <mxCell id="UbSvKDIAUj5E0JvzbPg4-38" value="restoration" style="rounded=0;whiteSpace=wrap;html=1;" vertex="1" parent="1">
          <mxGeometry x="560" y="420" width="80" height="20" as="geometry" />
        </mxCell>
        <mxCell id="UbSvKDIAUj5E0JvzbPg4-40" value="condition update&lt;br&gt;cooldown update&lt;br&gt;duration update&lt;br&gt;get damage&lt;br&gt;sound effect" style="rounded=0;whiteSpace=wrap;html=1;" vertex="1" parent="1">
          <mxGeometry x="680" y="320" width="100" height="80" as="geometry" />
        </mxCell>
        <mxCell id="UbSvKDIAUj5E0JvzbPg4-45" value="condition update&lt;br&gt;collision update" style="rounded=0;whiteSpace=wrap;html=1;" vertex="1" parent="1">
          <mxGeometry x="680" y="400" width="100" height="40" as="geometry" />
        </mxCell>
        <mxCell id="UbSvKDIAUj5E0JvzbPg4-55" value="" style="endArrow=classic;html=1;rounded=0;exitX=0.5;exitY=1;exitDx=0;exitDy=0;entryX=0.5;entryY=0;entryDx=0;entryDy=0;" edge="1" parent="1" source="UbSvKDIAUj5E0JvzbPg4-18" target="UbSvKDIAUj5E0JvzbPg4-23">
          <mxGeometry width="50" height="50" relative="1" as="geometry">
            <mxPoint x="660" y="330" as="sourcePoint" />
            <mxPoint x="710" y="280" as="targetPoint" />
          </mxGeometry>
        </mxCell>
        <mxCell id="UbSvKDIAUj5E0JvzbPg4-56" value="" style="endArrow=classic;html=1;rounded=0;exitX=0.5;exitY=1;exitDx=0;exitDy=0;entryX=0.5;entryY=0;entryDx=0;entryDy=0;" edge="1" parent="1" source="UbSvKDIAUj5E0JvzbPg4-23" target="UbSvKDIAUj5E0JvzbPg4-27">
          <mxGeometry width="50" height="50" relative="1" as="geometry">
            <mxPoint x="660" y="330" as="sourcePoint" />
            <mxPoint x="710" y="280" as="targetPoint" />
          </mxGeometry>
        </mxCell>
        <mxCell id="UbSvKDIAUj5E0JvzbPg4-57" value="" style="endArrow=classic;html=1;rounded=0;exitX=0.5;exitY=1;exitDx=0;exitDy=0;entryX=0.5;entryY=0;entryDx=0;entryDy=0;" edge="1" parent="1" source="UbSvKDIAUj5E0JvzbPg4-27" target="UbSvKDIAUj5E0JvzbPg4-35">
          <mxGeometry width="50" height="50" relative="1" as="geometry">
            <mxPoint x="660" y="330" as="sourcePoint" />
            <mxPoint x="710" y="280" as="targetPoint" />
          </mxGeometry>
        </mxCell>
        <mxCell id="UbSvKDIAUj5E0JvzbPg4-70" style="edgeStyle=orthogonalEdgeStyle;rounded=0;orthogonalLoop=1;jettySize=auto;html=1;entryX=0;entryY=0.5;entryDx=0;entryDy=0;" edge="1" parent="1" source="UbSvKDIAUj5E0JvzbPg4-58" target="UbSvKDIAUj5E0JvzbPg4-59">
          <mxGeometry relative="1" as="geometry" />
        </mxCell>
        <mxCell id="UbSvKDIAUj5E0JvzbPg4-58" value="InputShieldPush" style="rounded=0;whiteSpace=wrap;html=1;" vertex="1" parent="1">
          <mxGeometry x="390" y="460" width="100" height="20" as="geometry" />
        </mxCell>
        <mxCell id="UbSvKDIAUj5E0JvzbPg4-59" value="push trigger" style="rounded=0;whiteSpace=wrap;html=1;" vertex="1" parent="1">
          <mxGeometry x="560" y="460" width="70" height="20" as="geometry" />
        </mxCell>
        <mxCell id="UbSvKDIAUj5E0JvzbPg4-68" style="edgeStyle=orthogonalEdgeStyle;rounded=0;orthogonalLoop=1;jettySize=auto;html=1;entryX=0;entryY=0.5;entryDx=0;entryDy=0;" edge="1" parent="1" source="UbSvKDIAUj5E0JvzbPg4-60" target="UbSvKDIAUj5E0JvzbPg4-61">
          <mxGeometry relative="1" as="geometry" />
        </mxCell>
        <mxCell id="UbSvKDIAUj5E0JvzbPg4-69" style="edgeStyle=orthogonalEdgeStyle;rounded=0;orthogonalLoop=1;jettySize=auto;html=1;entryX=0;entryY=0.5;entryDx=0;entryDy=0;" edge="1" parent="1" source="UbSvKDIAUj5E0JvzbPg4-60" target="UbSvKDIAUj5E0JvzbPg4-67">
          <mxGeometry relative="1" as="geometry" />
        </mxCell>
        <mxCell id="UbSvKDIAUj5E0JvzbPg4-85" style="edgeStyle=orthogonalEdgeStyle;rounded=0;orthogonalLoop=1;jettySize=auto;html=1;entryX=0.5;entryY=0;entryDx=0;entryDy=0;" edge="1" parent="1" source="UbSvKDIAUj5E0JvzbPg4-60" target="UbSvKDIAUj5E0JvzbPg4-74">
          <mxGeometry relative="1" as="geometry" />
        </mxCell>
        <mxCell id="UbSvKDIAUj5E0JvzbPg4-60" value="ActionShieldPush" style="rounded=0;whiteSpace=wrap;html=1;" vertex="1" parent="1">
          <mxGeometry x="380" y="500" width="120" height="20" as="geometry" />
        </mxCell>
        <mxCell id="UbSvKDIAUj5E0JvzbPg4-65" style="edgeStyle=orthogonalEdgeStyle;rounded=0;orthogonalLoop=1;jettySize=auto;html=1;entryX=0;entryY=0.5;entryDx=0;entryDy=0;" edge="1" parent="1" source="UbSvKDIAUj5E0JvzbPg4-61" target="UbSvKDIAUj5E0JvzbPg4-64">
          <mxGeometry relative="1" as="geometry" />
        </mxCell>
        <mxCell id="UbSvKDIAUj5E0JvzbPg4-77" style="edgeStyle=orthogonalEdgeStyle;rounded=0;orthogonalLoop=1;jettySize=auto;html=1;entryX=0;entryY=0.5;entryDx=0;entryDy=0;" edge="1" parent="1" source="UbSvKDIAUj5E0JvzbPg4-61" target="UbSvKDIAUj5E0JvzbPg4-76">
          <mxGeometry relative="1" as="geometry">
            <Array as="points">
              <mxPoint x="660" y="510" />
              <mxPoint x="660" y="550" />
            </Array>
          </mxGeometry>
        </mxCell>
        <mxCell id="UbSvKDIAUj5E0JvzbPg4-61" value="shield acc" style="rounded=0;whiteSpace=wrap;html=1;" vertex="1" parent="1">
          <mxGeometry x="560" y="500" width="70" height="20" as="geometry" />
        </mxCell>
        <mxCell id="UbSvKDIAUj5E0JvzbPg4-62" value="cooldown update" style="rounded=0;whiteSpace=wrap;html=1;" vertex="1" parent="1">
          <mxGeometry x="680" y="260" width="100" height="20" as="geometry" />
        </mxCell>
        <mxCell id="UbSvKDIAUj5E0JvzbPg4-64" value="cooldown update" style="rounded=0;whiteSpace=wrap;html=1;" vertex="1" parent="1">
          <mxGeometry x="680" y="500" width="100" height="20" as="geometry" />
        </mxCell>
        <mxCell id="UbSvKDIAUj5E0JvzbPg4-67" value="collision expand" style="rounded=0;whiteSpace=wrap;html=1;" vertex="1" parent="1">
          <mxGeometry x="560" y="540" width="90" height="20" as="geometry" />
        </mxCell>
        <mxCell id="UbSvKDIAUj5E0JvzbPg4-71" value="" style="endArrow=classic;html=1;rounded=0;exitX=0.5;exitY=1;exitDx=0;exitDy=0;entryX=0.5;entryY=0;entryDx=0;entryDy=0;dashed=1;" edge="1" parent="1" source="UbSvKDIAUj5E0JvzbPg4-59" target="UbSvKDIAUj5E0JvzbPg4-61">
          <mxGeometry width="50" height="50" relative="1" as="geometry">
            <mxPoint x="660" y="320" as="sourcePoint" />
            <mxPoint x="710" y="270" as="targetPoint" />
          </mxGeometry>
        </mxCell>
        <mxCell id="UbSvKDIAUj5E0JvzbPg4-73" value="" style="endArrow=classic;html=1;rounded=0;exitX=0.5;exitY=1;exitDx=0;exitDy=0;entryX=0.5;entryY=0;entryDx=0;entryDy=0;" edge="1" parent="1" source="UbSvKDIAUj5E0JvzbPg4-58" target="UbSvKDIAUj5E0JvzbPg4-60">
          <mxGeometry width="50" height="50" relative="1" as="geometry">
            <mxPoint x="660" y="320" as="sourcePoint" />
            <mxPoint x="710" y="270" as="targetPoint" />
          </mxGeometry>
        </mxCell>
        <mxCell id="UbSvKDIAUj5E0JvzbPg4-80" style="edgeStyle=orthogonalEdgeStyle;rounded=0;orthogonalLoop=1;jettySize=auto;html=1;entryX=0;entryY=0.5;entryDx=0;entryDy=0;" edge="1" parent="1" source="UbSvKDIAUj5E0JvzbPg4-74" target="UbSvKDIAUj5E0JvzbPg4-75">
          <mxGeometry relative="1" as="geometry" />
        </mxCell>
        <mxCell id="UbSvKDIAUj5E0JvzbPg4-74" value="AdjustShieldReturn" style="rounded=0;whiteSpace=wrap;html=1;" vertex="1" parent="1">
          <mxGeometry x="380" y="580" width="120" height="20" as="geometry" />
        </mxCell>
        <mxCell id="UbSvKDIAUj5E0JvzbPg4-79" style="edgeStyle=orthogonalEdgeStyle;rounded=0;orthogonalLoop=1;jettySize=auto;html=1;entryX=0.5;entryY=1;entryDx=0;entryDy=0;dashed=1;" edge="1" parent="1" source="UbSvKDIAUj5E0JvzbPg4-75" target="UbSvKDIAUj5E0JvzbPg4-76">
          <mxGeometry relative="1" as="geometry" />
        </mxCell>
        <mxCell id="UbSvKDIAUj5E0JvzbPg4-75" value="elasticity" style="rounded=0;whiteSpace=wrap;html=1;" vertex="1" parent="1">
          <mxGeometry x="560" y="580" width="50" height="20" as="geometry" />
        </mxCell>
        <mxCell id="UbSvKDIAUj5E0JvzbPg4-76" value="velShield" style="shape=hexagon;perimeter=hexagonPerimeter2;whiteSpace=wrap;html=1;fixedSize=1;size=10;" vertex="1" parent="1">
          <mxGeometry x="680" y="540" width="70" height="20" as="geometry" />
        </mxCell>
        <mxCell id="UbSvKDIAUj5E0JvzbPg4-84" style="edgeStyle=orthogonalEdgeStyle;rounded=0;orthogonalLoop=1;jettySize=auto;html=1;entryX=0;entryY=0.5;entryDx=0;entryDy=0;" edge="1" parent="1" source="UbSvKDIAUj5E0JvzbPg4-81" target="UbSvKDIAUj5E0JvzbPg4-82">
          <mxGeometry relative="1" as="geometry" />
        </mxCell>
        <mxCell id="UbSvKDIAUj5E0JvzbPg4-81" value="AdjustShieldRotate" style="rounded=0;whiteSpace=wrap;html=1;" vertex="1" parent="1">
          <mxGeometry x="380" y="620" width="120" height="20" as="geometry" />
        </mxCell>
        <mxCell id="UbSvKDIAUj5E0JvzbPg4-82" value="shield rotation" style="rounded=0;whiteSpace=wrap;html=1;" vertex="1" parent="1">
          <mxGeometry x="560" y="620" width="80" height="20" as="geometry" />
        </mxCell>
        <mxCell id="UbSvKDIAUj5E0JvzbPg4-86" value="" style="endArrow=classic;html=1;rounded=0;exitX=0.5;exitY=1;exitDx=0;exitDy=0;entryX=0.5;entryY=0;entryDx=0;entryDy=0;" edge="1" parent="1" source="UbSvKDIAUj5E0JvzbPg4-74" target="UbSvKDIAUj5E0JvzbPg4-81">
          <mxGeometry width="50" height="50" relative="1" as="geometry">
            <mxPoint x="660" y="420" as="sourcePoint" />
            <mxPoint x="710" y="370" as="targetPoint" />
          </mxGeometry>
        </mxCell>
        <mxCell id="UbSvKDIAUj5E0JvzbPg4-90" style="edgeStyle=orthogonalEdgeStyle;rounded=0;orthogonalLoop=1;jettySize=auto;html=1;entryX=0;entryY=0.5;entryDx=0;entryDy=0;" edge="1" parent="1" source="UbSvKDIAUj5E0JvzbPg4-87" target="UbSvKDIAUj5E0JvzbPg4-35">
          <mxGeometry relative="1" as="geometry" />
        </mxCell>
        <mxCell id="UbSvKDIAUj5E0JvzbPg4-91" style="edgeStyle=orthogonalEdgeStyle;rounded=0;orthogonalLoop=1;jettySize=auto;html=1;entryX=1;entryY=0.5;entryDx=0;entryDy=0;" edge="1" parent="1" source="UbSvKDIAUj5E0JvzbPg4-87" target="UbSvKDIAUj5E0JvzbPg4-89">
          <mxGeometry relative="1" as="geometry">
            <Array as="points">
              <mxPoint x="350" y="350" />
              <mxPoint x="350" y="270" />
            </Array>
          </mxGeometry>
        </mxCell>
        <mxCell id="UbSvKDIAUj5E0JvzbPg4-87" value="ColliBody" style="rounded=0;whiteSpace=wrap;html=1;" vertex="1" parent="1">
          <mxGeometry x="260" y="340" width="60" height="20" as="geometry" />
        </mxCell>
        <mxCell id="UbSvKDIAUj5E0JvzbPg4-93" style="edgeStyle=orthogonalEdgeStyle;rounded=0;orthogonalLoop=1;jettySize=auto;html=1;entryX=0.5;entryY=1;entryDx=0;entryDy=0;" edge="1" parent="1" source="UbSvKDIAUj5E0JvzbPg4-88" target="UbSvKDIAUj5E0JvzbPg4-89">
          <mxGeometry relative="1" as="geometry" />
        </mxCell>
        <mxCell id="UbSvKDIAUj5E0JvzbPg4-88" value="ColliShield" style="rounded=0;whiteSpace=wrap;html=1;" vertex="1" parent="1">
          <mxGeometry x="260" y="300" width="70" height="20" as="geometry" />
        </mxCell>
        <mxCell id="UbSvKDIAUj5E0JvzbPg4-102" style="edgeStyle=orthogonalEdgeStyle;rounded=0;orthogonalLoop=1;jettySize=auto;html=1;entryX=0;entryY=0.5;entryDx=0;entryDy=0;dashed=1;" edge="1" parent="1" source="UbSvKDIAUj5E0JvzbPg4-89" target="UbSvKDIAUj5E0JvzbPg4-18">
          <mxGeometry relative="1" as="geometry">
            <Array as="points">
              <mxPoint x="300" y="230" />
            </Array>
          </mxGeometry>
        </mxCell>
        <mxCell id="UbSvKDIAUj5E0JvzbPg4-89" value="Rebound" style="rounded=0;whiteSpace=wrap;html=1;" vertex="1" parent="1">
          <mxGeometry x="260" y="260" width="70" height="20" as="geometry" />
        </mxCell>
        <mxCell id="UbSvKDIAUj5E0JvzbPg4-101" style="edgeStyle=orthogonalEdgeStyle;rounded=0;orthogonalLoop=1;jettySize=auto;html=1;entryX=0;entryY=0.5;entryDx=0;entryDy=0;" edge="1" parent="1" source="UbSvKDIAUj5E0JvzbPg4-94" target="UbSvKDIAUj5E0JvzbPg4-97">
          <mxGeometry relative="1" as="geometry" />
        </mxCell>
        <mxCell id="UbSvKDIAUj5E0JvzbPg4-94" value="enemy" style="shape=process;whiteSpace=wrap;html=1;backgroundOutline=1;" vertex="1" parent="1">
          <mxGeometry x="20" y="300" width="60" height="20" as="geometry" />
        </mxCell>
        <mxCell id="UbSvKDIAUj5E0JvzbPg4-100" style="edgeStyle=orthogonalEdgeStyle;rounded=0;orthogonalLoop=1;jettySize=auto;html=1;entryX=0;entryY=0.5;entryDx=0;entryDy=0;" edge="1" parent="1" source="UbSvKDIAUj5E0JvzbPg4-95" target="UbSvKDIAUj5E0JvzbPg4-97">
          <mxGeometry relative="1" as="geometry" />
        </mxCell>
        <mxCell id="UbSvKDIAUj5E0JvzbPg4-95" value="bullet" style="shape=process;whiteSpace=wrap;html=1;backgroundOutline=1;" vertex="1" parent="1">
          <mxGeometry x="20" y="340" width="60" height="20" as="geometry" />
        </mxCell>
        <mxCell id="UbSvKDIAUj5E0JvzbPg4-98" style="edgeStyle=orthogonalEdgeStyle;rounded=0;orthogonalLoop=1;jettySize=auto;html=1;entryX=0;entryY=0.5;entryDx=0;entryDy=0;" edge="1" parent="1" source="UbSvKDIAUj5E0JvzbPg4-97" target="UbSvKDIAUj5E0JvzbPg4-88">
          <mxGeometry relative="1" as="geometry" />
        </mxCell>
        <mxCell id="UbSvKDIAUj5E0JvzbPg4-99" style="edgeStyle=orthogonalEdgeStyle;rounded=0;orthogonalLoop=1;jettySize=auto;html=1;entryX=0;entryY=0.5;entryDx=0;entryDy=0;" edge="1" parent="1" source="UbSvKDIAUj5E0JvzbPg4-97" target="UbSvKDIAUj5E0JvzbPg4-87">
          <mxGeometry relative="1" as="geometry" />
        </mxCell>
        <mxCell id="UbSvKDIAUj5E0JvzbPg4-97" value="load player code" style="rounded=0;whiteSpace=wrap;html=1;" vertex="1" parent="1">
          <mxGeometry x="120" y="320" width="100" height="20" as="geometry" />
        </mxCell>
        <mxCell id="UbSvKDIAUj5E0JvzbPg4-103" value="" style="endArrow=none;dashed=1;html=1;strokeWidth=1;rounded=0;strokeColor=#ff0000;" edge="1" parent="1">
          <mxGeometry width="50" height="50" relative="1" as="geometry">
            <mxPoint x="830" y="440" as="sourcePoint" />
            <mxPoint x="830" y="160" as="targetPoint" />
          </mxGeometry>
        </mxCell>
        <mxCell id="UbSvKDIAUj5E0JvzbPg4-105" value="player section" style="text;html=1;strokeColor=none;fillColor=none;align=center;verticalAlign=middle;whiteSpace=wrap;rounded=0;rotation=90;fontColor=#FF1F17;" vertex="1" parent="1">
          <mxGeometry x="800" y="290" width="80" height="20" as="geometry" />
        </mxCell>
        <mxCell id="UbSvKDIAUj5E0JvzbPg4-106" value="shield section" style="text;html=1;strokeColor=none;fillColor=none;align=center;verticalAlign=middle;whiteSpace=wrap;rounded=0;rotation=90;fontColor=#0000FF;" vertex="1" parent="1">
          <mxGeometry x="800" y="540" width="80" height="20" as="geometry" />
        </mxCell>
        <mxCell id="UbSvKDIAUj5E0JvzbPg4-104" value="" style="endArrow=none;dashed=1;html=1;strokeWidth=1;rounded=0;strokeColor=#0000ff;" edge="1" parent="1">
          <mxGeometry width="50" height="50" relative="1" as="geometry">
            <mxPoint x="830" y="640" as="sourcePoint" />
            <mxPoint x="830" y="460" as="targetPoint" />
          </mxGeometry>
        </mxCell>
        <mxCell id="UbSvKDIAUj5E0JvzbPg4-108" value="_Ready" style="swimlane;whiteSpace=wrap;html=1;startSize=20;" vertex="1" parent="1">
          <mxGeometry x="80" y="40" width="180" height="160" as="geometry" />
        </mxCell>
        <mxCell id="UbSvKDIAUj5E0JvzbPg4-109" value="Set cooldown Dictionary&lt;br&gt;Set duration Dictionary&lt;br&gt;Set trigger Dictionary&lt;br&gt;Set condition Dictionary" style="rounded=0;whiteSpace=wrap;html=1;" vertex="1" parent="UbSvKDIAUj5E0JvzbPg4-108">
          <mxGeometry x="20" y="40" width="140" height="60" as="geometry" />
        </mxCell>
        <mxCell id="UbSvKDIAUj5E0JvzbPg4-110" value="CalCoefficientFriction" style="rounded=0;whiteSpace=wrap;html=1;" vertex="1" parent="UbSvKDIAUj5E0JvzbPg4-108">
          <mxGeometry x="20" y="120" width="140" height="20" as="geometry" />
        </mxCell>
        <mxCell id="UbSvKDIAUj5E0JvzbPg4-112" value="" style="endArrow=classic;html=1;rounded=0;exitX=0.5;exitY=1;exitDx=0;exitDy=0;entryX=0.5;entryY=0;entryDx=0;entryDy=0;" edge="1" parent="UbSvKDIAUj5E0JvzbPg4-108" source="UbSvKDIAUj5E0JvzbPg4-109" target="UbSvKDIAUj5E0JvzbPg4-110">
          <mxGeometry width="50" height="50" relative="1" as="geometry">
            <mxPoint x="270" y="370" as="sourcePoint" />
            <mxPoint x="320" y="320" as="targetPoint" />
          </mxGeometry>
        </mxCell>
      </root>
    </mxGraphModel>
  </diagram>
</mxfile>
